<?xml version="1.0" encoding="utf-8"?>
<!-- Generator: Adobe Illustrator 26.0.1, SVG Export Plug-In . SVG Version: 6.00 Build 0)  -->
<svg version="1.1" id="Layer_1" xmlns="http://www.w3.org/2000/svg" xmlns:xlink="http://www.w3.org/1999/xlink" x="0px" y="0px"
	 viewBox="0 21 177 34" style="enable-background:new 0 21 177 34;" xml:space="preserve">
<style type="text/css">
	.st0{fill:#FF3259;}
</style>
<g>
	<path d="M4.1,43.7l8.8-22h0.5l8.8,22c1,2.6,2,3.1,3.5,3.1v0.5h-9.5v-0.5c2.5,0,3.1-0.7,2.2-3L16.5,39H7L5,43.7
		c-0.9,2.4,0.6,3,2.9,3v0.5H0.2v-0.5C2.1,46.8,3.1,46.1,4.1,43.7z M16.1,38.1L11.7,27L7.3,38.1H16.1z"/>
	<path d="M27.6,46.3V41h0.4c1.1,3.5,3.9,6,7.1,6c2.1,0,3.6-1.2,3.6-3c0-4.8-11-2.6-11-9.8c0-3.3,2.7-5.2,6.4-5.2
		c2.2,0,4.5,0.6,6.1,1.6v5.1h-0.4c-0.8-3.5-3-5.8-6.2-5.8c-2.1,0-3.6,1.3-3.6,3c0,4.8,10.9,3,10.9,9.7c0,3.5-2.5,5.2-6.4,5.2
		C32.5,47.9,29.3,47.3,27.6,46.3z"/>
	<path d="M46.2,43.5V26.3c0-2.1-0.4-2.8-3.3-2.8v-0.4l6.7-1.7v16.5l6.1-5.3c1.4-1.2,0.7-2.5-1.1-2.5v-0.5h7.7v0.5
		c-2.1,0-3.4,0.7-5.2,2.3L51.9,37v0.2c2.9,0.6,4.9,2.2,6.3,4.2l4.1,5.4v0.4h-3.7l-7.2-9.8L49.6,39v4.4c0,2.7,1,3.3,3.3,3.3v0.5h-9.9
		v-0.5C45.2,46.8,46.2,46.2,46.2,43.5z"/>
	<path d="M66.8,43.5V24c-0.9-1.2-1.9-1.5-3-1.5v-0.5h6.2l8.4,20.5l8.4-20.5h6.3v0.5c-2.2,0-3.3,0.6-3.3,3.3v17.7
		c0,2.7,1,3.3,3.3,3.3v0.5H82.9v-0.5c2.2,0,3.3-0.6,3.3-3.3V25.8l-8.9,21.8h-0.6l-9-21.8v17.6c0,2.7,0.9,3.3,3.3,3.3v0.5h-7.5v-0.5
		C65.7,46.8,66.8,46.2,66.8,43.5z"/>
	<path d="M102.9,47.4l-6.1-14.3c-1.1-2.6-1.8-3.1-3.4-3.1v-0.5h8.9v0.5c-2.2,0-3,0.5-2,3.1l4.3,10.1l4.2-10.1c1.1-2.6,0-3.1-2.2-3.1
		v-0.5h7.2v0.5c-1.8,0-2.9,0.5-4,3.1l-5.8,13.7c-2.4,5.6-4.9,8.6-10.1,8.6V52C99.6,52.8,101.5,50.5,102.9,47.4z"/>
	<path d="M118.1,43.5V25.8c0-2.7-1-3.3-3.3-3.3v-0.5h12.3c5.2,0,8.1,2.4,8.1,6.5c0,3.1-2.5,5.7-6.2,5.7v0.2c3.7,0,7.3,2.1,7.3,6.1
		c0,3.9-2.8,6.8-9,6.8h-12.6v-0.5C117.1,46.8,118.1,46.2,118.1,43.5z M125.7,33.9c3.8,0,5.9-2.4,5.9-5.5c0-3.4-2.1-5.6-5.6-5.6h-4.3
		v11.1H125.7z M126.8,46.4c4,0,5.9-2.7,5.9-5.7c0-3.5-2.3-5.9-6.3-5.9h-4.8v11.6H126.8z"/>
	<path d="M141.8,43.5v-9.5c0-2.1-0.4-2.8-3.3-2.8v-0.4l6.7-1.7v14.5c0,2.7,1,3.3,3.3,3.3v0.5h-9.9v-0.5
		C140.8,46.8,141.8,46.2,141.8,43.5z M143.3,21.4c1.3,0,2.3,1,2.3,2.3c0,1.3-1,2.2-2.3,2.2c-1.3,0-2.3-1-2.3-2.2
		C141,22.4,142,21.4,143.3,21.4z"/>
	<path d="M150.2,38.4c0-5.4,3.8-9.5,8.8-9.5c5.2,0,8.8,3.4,8.8,9.5c0,5.4-3.8,9.5-8.8,9.5C153.9,47.9,150.2,44.4,150.2,38.4z
		 M159.4,47c3.8,0,4.9-3.9,4.9-7.6c0-4.3-1.3-9.6-5.6-9.6c-3.4,0-4.9,3.5-4.9,7.6C153.8,42.1,155.2,47,159.4,47z"/>
</g>
<circle class="st0" cx="172.7" cy="44.5" r="3.3"/>
</svg>
